<svg id="svg" version="1.1" xmlns="http://www.w3.org/2000/svg" xmlns:xlink="http://www.w3.org/1999/xlink" width="400" height="400" viewBox="0, 0, 400,400"><g id="svgg"><path id="path0" d="M120.499 200.100 L 120.600 279.400 144.400 279.511 C 157.490 279.571,168.605 279.523,169.100 279.403 L 170.000 279.185 170.000 238.011 C 170.000 208.804,170.128 196.556,170.442 195.868 C 171.013 194.615,173.581 195.433,174.445 197.143 C 174.739 197.724,175.389 198.709,175.890 199.331 C 176.390 199.953,176.800 200.718,176.800 201.031 C 176.800 201.344,176.978 201.600,177.195 201.600 C 177.592 201.600,179.210 203.820,180.487 206.118 C 180.865 206.798,181.450 207.508,181.787 207.697 C 182.124 207.885,182.400 208.274,182.400 208.561 C 182.400 208.847,182.940 209.646,183.600 210.337 C 184.260 211.028,184.800 211.858,184.800 212.182 C 184.800 212.506,185.171 213.183,185.624 213.686 C 187.928 216.243,188.800 217.440,188.800 218.046 C 188.800 218.414,189.072 218.819,189.403 218.946 C 189.735 219.073,190.230 219.669,190.503 220.270 C 190.777 220.870,191.405 221.767,191.900 222.263 C 192.395 222.758,192.800 223.344,192.800 223.564 C 192.800 223.784,193.250 224.414,193.800 224.964 C 194.350 225.514,194.800 226.235,194.800 226.568 C 194.800 226.900,195.160 227.365,195.600 227.600 C 196.040 227.835,196.400 228.259,196.400 228.542 C 196.400 228.825,196.940 229.661,197.600 230.400 C 198.260 231.139,198.800 231.973,198.800 232.254 C 198.800 232.534,199.230 233.242,199.755 233.827 C 201.778 236.082,202.088 236.512,202.640 237.835 C 202.954 238.586,203.392 239.200,203.614 239.200 C 203.836 239.200,204.238 239.686,204.509 240.281 C 204.779 240.876,205.405 241.767,205.900 242.263 C 206.395 242.758,206.800 243.344,206.800 243.564 C 206.800 243.784,207.250 244.414,207.800 244.964 C 208.350 245.514,208.800 246.235,208.800 246.568 C 208.800 246.900,209.160 247.365,209.600 247.600 C 210.040 247.835,210.400 248.281,210.400 248.589 C 210.400 248.898,210.940 249.742,211.600 250.464 C 212.260 251.187,212.800 252.098,212.800 252.489 C 212.800 252.880,212.978 253.200,213.195 253.200 C 213.575 253.200,215.148 255.330,216.400 257.541 C 216.731 258.124,217.406 259.006,217.900 259.500 C 218.395 259.995,218.800 260.651,218.800 260.957 C 218.800 261.264,219.078 261.621,219.418 261.752 C 219.758 261.882,220.304 262.629,220.631 263.412 C 220.958 264.194,221.477 264.931,221.785 265.049 C 222.092 265.168,222.527 265.790,222.751 266.432 C 222.975 267.074,223.326 267.600,223.531 267.600 C 223.735 267.600,224.119 268.122,224.384 268.760 C 224.648 269.399,225.300 270.330,225.832 270.830 C 226.364 271.330,226.800 272.068,226.800 272.470 C 226.800 272.871,226.968 273.200,227.174 273.200 C 227.630 273.200,229.772 276.130,230.591 277.875 C 231.428 279.657,231.320 279.651,257.000 279.517 L 279.400 279.400 279.501 200.100 L 279.602 120.800 254.801 120.800 L 230.000 120.800 230.000 161.974 C 230.000 187.328,229.852 203.536,229.616 204.158 C 229.068 205.599,226.733 204.794,225.477 202.733 C 224.475 201.088,222.970 198.919,221.221 196.600 C 220.557 195.720,219.788 194.550,219.513 194.000 C 219.238 193.450,218.695 192.765,218.306 192.477 C 217.918 192.190,217.593 191.740,217.584 191.477 C 217.575 191.215,217.035 190.377,216.384 189.615 C 215.733 188.853,215.200 187.908,215.200 187.515 C 215.200 187.122,214.942 186.800,214.627 186.800 C 214.312 186.800,213.927 186.395,213.771 185.900 C 213.616 185.405,213.109 184.628,212.644 184.173 C 212.180 183.717,211.440 182.734,211.000 181.987 C 209.873 180.072,209.307 179.271,206.300 175.331 C 205.695 174.539,205.200 173.688,205.200 173.441 C 205.200 173.194,204.840 172.768,204.400 172.493 C 203.960 172.218,203.600 171.753,203.600 171.459 C 203.600 171.165,203.242 170.600,202.805 170.205 C 202.368 169.809,201.792 168.881,201.525 168.143 C 201.258 167.404,200.809 166.800,200.527 166.800 C 200.246 166.800,199.901 166.346,199.762 165.791 C 199.623 165.236,199.196 164.561,198.814 164.291 C 198.432 164.021,197.798 163.170,197.405 162.400 C 197.013 161.630,196.446 160.856,196.146 160.680 C 195.846 160.504,195.600 160.127,195.600 159.842 C 195.600 159.557,195.232 158.991,194.781 158.583 C 194.331 158.175,193.578 157.158,193.108 156.321 C 192.637 155.484,192.106 154.800,191.926 154.800 C 191.747 154.800,191.600 154.556,191.600 154.258 C 191.600 153.961,191.195 153.245,190.700 152.669 C 189.013 150.705,188.037 149.319,187.524 148.159 C 187.243 147.521,186.695 146.765,186.306 146.477 C 185.918 146.190,185.600 145.764,185.600 145.530 C 185.600 145.297,185.060 144.491,184.400 143.739 C 183.740 142.987,183.200 142.115,183.200 141.800 C 183.200 141.486,182.840 141.035,182.400 140.800 C 181.960 140.565,181.600 140.136,181.600 139.848 C 181.600 139.560,181.232 138.991,180.781 138.583 C 180.331 138.175,179.578 137.158,179.108 136.321 C 178.637 135.484,178.106 134.800,177.926 134.800 C 177.747 134.800,177.600 134.539,177.600 134.221 C 177.600 133.902,177.156 133.162,176.613 132.576 C 176.070 131.990,175.518 131.171,175.386 130.755 C 175.254 130.340,175.007 130.000,174.836 130.000 C 174.666 130.000,174.183 129.325,173.763 128.500 C 173.343 127.675,172.685 126.765,172.300 126.477 C 171.915 126.190,171.600 125.723,171.600 125.439 C 171.600 125.156,171.215 124.581,170.745 124.162 C 170.274 123.743,169.642 122.815,169.339 122.100 L 168.789 120.800 144.594 120.800 L 120.398 120.800 120.499 200.100 " stroke="none" fill="#fbfbfb" fill-rule="evenodd"></path><path id="path1" d="M120.200 119.479 C 117.808 120.088,118.000 113.046,118.000 200.033 L 118.000 279.142 119.054 279.971 C 120.489 281.100,169.916 281.294,171.511 280.177 L 172.400 279.555 172.400 239.201 C 172.400 199.969,172.502 196.513,173.579 199.344 C 173.786 199.889,174.194 200.485,174.486 200.668 C 174.778 200.850,175.242 201.450,175.517 202.000 C 176.152 203.270,177.883 205.729,180.204 208.658 C 180.752 209.350,181.200 210.082,181.200 210.286 C 181.200 210.489,181.740 211.261,182.400 212.000 C 183.060 212.739,183.600 213.575,183.600 213.858 C 183.600 214.141,183.960 214.565,184.400 214.800 C 184.840 215.035,185.200 215.454,185.200 215.729 C 185.200 216.005,185.733 216.853,186.384 217.615 C 187.035 218.377,187.575 219.215,187.584 219.477 C 187.593 219.740,187.918 220.190,188.306 220.477 C 188.695 220.765,189.238 221.450,189.515 222.000 C 190.091 223.148,191.634 225.370,192.801 226.734 C 193.240 227.248,193.600 227.923,193.600 228.234 C 193.600 228.545,193.776 228.800,193.992 228.800 C 194.207 228.800,194.733 229.475,195.159 230.300 C 195.586 231.125,196.310 232.113,196.768 232.496 C 197.225 232.879,197.600 233.458,197.600 233.782 C 197.600 234.106,197.960 234.565,198.400 234.800 C 198.840 235.035,199.200 235.486,199.200 235.800 C 199.200 236.115,199.740 236.987,200.400 237.739 C 201.060 238.491,201.600 239.297,201.600 239.530 C 201.600 239.764,201.915 240.190,202.300 240.477 C 202.685 240.765,203.312 241.675,203.694 242.500 C 204.075 243.325,204.558 244.000,204.767 244.000 C 204.975 244.000,205.254 244.340,205.386 244.755 C 205.518 245.171,206.070 245.990,206.613 246.576 C 207.156 247.162,207.600 247.902,207.600 248.221 C 207.600 248.539,207.747 248.800,207.926 248.800 C 208.106 248.800,208.637 249.484,209.108 250.321 C 209.578 251.158,210.331 252.175,210.781 252.583 C 211.232 252.991,211.600 253.572,211.600 253.875 C 211.600 254.177,211.877 254.531,212.215 254.661 C 212.553 254.791,213.097 255.536,213.423 256.316 C 213.749 257.097,214.372 257.985,214.808 258.291 C 215.244 258.596,215.600 259.095,215.600 259.400 C 215.600 259.705,215.924 260.190,216.320 260.477 C 216.716 260.765,217.273 261.572,217.557 262.271 C 217.841 262.970,218.417 263.853,218.837 264.233 C 219.256 264.613,219.600 265.134,219.600 265.390 C 219.600 265.646,220.050 266.247,220.600 266.725 C 221.150 267.203,221.600 267.866,221.600 268.197 C 221.600 268.529,221.747 268.800,221.926 268.800 C 222.106 268.800,222.637 269.484,223.108 270.321 C 223.578 271.158,224.331 272.175,224.781 272.583 C 225.232 272.991,225.600 273.557,225.600 273.842 C 225.600 274.127,225.847 274.504,226.148 274.680 C 226.449 274.856,227.072 275.743,227.531 276.651 C 227.990 277.559,228.644 278.408,228.983 278.538 C 229.322 278.668,229.600 279.044,229.600 279.373 C 229.600 280.724,230.986 280.800,255.520 280.800 C 279.571 280.800,279.906 280.789,280.946 279.971 L 282.000 279.142 282.000 200.033 L 282.000 120.924 281.158 120.162 C 280.046 119.156,229.462 118.952,228.261 119.949 C 227.654 120.453,227.599 123.803,227.594 160.749 C 227.590 186.045,227.444 201.223,227.200 201.600 C 226.871 202.110,226.811 202.092,226.806 201.482 C 226.803 201.087,226.395 200.346,225.900 199.836 C 225.405 199.326,224.730 198.456,224.400 197.903 C 222.935 195.448,221.559 193.600,221.195 193.600 C 220.978 193.600,220.800 193.271,220.800 192.870 C 220.800 192.468,220.350 191.717,219.800 191.200 C 219.250 190.683,218.800 190.014,218.800 189.712 C 218.800 189.410,218.395 188.758,217.900 188.263 C 217.405 187.767,216.779 186.876,216.509 186.281 C 216.238 185.686,215.836 185.200,215.614 185.200 C 215.392 185.200,214.946 184.567,214.623 183.794 C 214.300 183.021,213.758 182.282,213.418 182.152 C 213.078 182.021,212.800 181.655,212.800 181.339 C 212.800 181.023,212.350 180.314,211.800 179.764 C 211.250 179.214,210.800 178.530,210.800 178.244 C 210.800 177.958,210.422 177.382,209.959 176.963 C 209.497 176.544,208.842 175.661,208.505 175.001 C 208.168 174.340,207.646 173.656,207.346 173.480 C 207.046 173.304,206.800 172.927,206.800 172.642 C 206.800 172.357,206.425 171.785,205.967 171.370 C 205.509 170.955,204.887 170.025,204.585 169.302 C 204.283 168.580,203.758 167.882,203.418 167.752 C 203.078 167.621,202.800 167.264,202.800 166.957 C 202.800 166.651,202.395 165.995,201.900 165.500 C 201.406 165.006,200.731 164.124,200.400 163.541 C 199.148 161.330,197.575 159.200,197.195 159.200 C 196.978 159.200,196.800 158.909,196.800 158.553 C 196.800 158.197,196.260 157.291,195.600 156.539 C 194.940 155.787,194.400 154.915,194.400 154.600 C 194.400 154.286,194.040 153.835,193.600 153.600 C 193.160 153.365,192.800 152.907,192.800 152.583 C 192.800 152.260,192.350 151.603,191.800 151.125 C 191.250 150.647,190.800 150.010,190.800 149.710 C 190.800 149.409,190.350 148.714,189.800 148.164 C 189.250 147.614,188.800 146.992,188.800 146.782 C 188.800 146.572,188.395 145.995,187.900 145.500 C 187.406 145.006,186.731 144.124,186.400 143.541 C 185.148 141.330,183.575 139.200,183.195 139.200 C 182.978 139.200,182.800 138.872,182.800 138.472 C 182.800 138.072,182.260 137.139,181.600 136.400 C 180.940 135.661,180.400 134.825,180.400 134.542 C 180.400 134.259,180.040 133.835,179.600 133.600 C 179.160 133.365,178.800 132.900,178.800 132.568 C 178.800 132.235,178.350 131.514,177.800 130.964 C 177.250 130.414,176.800 129.784,176.800 129.564 C 176.800 129.344,176.364 128.728,175.831 128.195 C 175.298 127.662,174.746 126.860,174.604 126.412 C 174.462 125.965,173.998 125.413,173.573 125.186 C 173.148 124.958,172.800 124.458,172.800 124.075 C 172.800 123.692,172.305 122.822,171.700 122.143 C 171.095 121.463,170.400 120.568,170.157 120.153 C 169.725 119.420,122.914 118.788,120.200 119.479 M171.271 123.000 C 174.647 127.816,175.380 128.876,176.075 129.954 C 176.447 130.529,176.911 131.185,177.108 131.410 C 177.304 131.636,177.810 132.353,178.232 133.004 C 178.654 133.654,179.234 134.460,179.521 134.793 C 179.807 135.127,180.833 136.570,181.801 138.000 C 184.223 141.579,186.960 145.489,188.380 147.400 C 189.034 148.280,189.872 149.540,190.241 150.200 C 190.610 150.860,191.345 151.940,191.873 152.600 C 193.478 154.605,193.982 155.303,195.622 157.800 C 196.489 159.120,198.107 161.460,199.216 163.000 C 201.672 166.407,203.082 168.425,204.400 170.420 C 204.950 171.252,205.951 172.713,206.624 173.666 C 207.297 174.620,208.647 176.546,209.624 177.947 C 210.601 179.348,211.888 181.148,212.485 181.947 C 213.081 182.746,213.865 183.923,214.227 184.562 C 214.589 185.202,215.226 186.091,215.643 186.538 C 216.059 186.985,216.400 187.484,216.400 187.647 C 216.400 187.810,216.632 188.181,216.916 188.471 C 217.200 188.762,218.289 190.260,219.336 191.800 C 220.383 193.340,222.142 195.860,223.245 197.400 C 224.348 198.940,225.617 200.785,226.065 201.500 C 228.382 205.200,228.400 204.896,228.400 161.040 C 228.400 121.693,228.417 120.819,229.174 120.414 C 230.354 119.783,279.686 119.846,280.320 120.480 C 280.690 120.850,280.800 139.071,280.800 200.057 L 280.800 279.155 279.911 279.777 C 278.990 280.423,234.722 280.676,231.826 280.053 C 230.953 279.865,230.154 279.084,228.705 277.000 C 227.634 275.460,226.320 273.570,225.785 272.800 C 225.250 272.030,224.044 270.302,223.106 268.960 C 222.168 267.618,220.540 265.278,219.489 263.760 C 218.438 262.242,216.496 259.470,215.174 257.600 C 213.851 255.730,212.329 253.570,211.790 252.800 C 209.403 249.385,207.091 246.048,205.832 244.200 C 205.082 243.100,203.638 241.030,202.622 239.600 C 201.606 238.170,200.469 236.550,200.097 236.000 C 199.724 235.450,198.560 233.805,197.509 232.344 C 196.459 230.883,195.600 229.488,195.600 229.244 C 195.600 229.000,195.438 228.800,195.240 228.800 C 195.041 228.800,194.456 228.139,193.940 227.330 C 192.395 224.914,190.975 222.847,187.901 218.536 C 185.959 215.811,183.405 212.133,182.530 210.800 C 182.025 210.030,181.434 209.189,181.218 208.930 C 181.002 208.672,179.874 207.083,178.712 205.401 C 177.551 203.718,176.191 201.770,175.690 201.071 C 175.190 200.372,174.392 199.190,173.918 198.445 L 173.056 197.090 172.328 197.989 C 171.635 198.846,171.600 200.804,171.600 238.995 C 171.600 275.808,171.546 279.147,170.939 279.651 C 169.877 280.533,121.483 280.677,120.148 279.803 L 119.200 279.182 119.200 200.011 C 119.200 125.032,119.237 120.818,119.900 120.430 C 120.361 120.160,128.905 120.051,144.954 120.110 L 169.309 120.200 171.271 123.000 " stroke="none" fill="#54db93" fill-rule="evenodd"></path><path id="path2" d="M27.200 0.600 C 27.200 1.080,26.600 1.200,24.200 1.200 C 21.285 1.200,21.200 1.228,21.200 2.178 C 21.200 3.061,21.015 3.168,19.300 3.278 C 17.679 3.382,17.381 3.532,17.272 4.300 C 17.180 4.951,16.876 5.200,16.172 5.200 C 15.402 5.200,15.200 5.408,15.200 6.200 C 15.200 7.000,15.000 7.200,14.200 7.200 C 13.406 7.200,13.200 7.401,13.200 8.178 C 13.200 9.061,13.015 9.168,11.300 9.278 L 9.400 9.400 9.278 11.300 C 9.168 13.015,9.061 13.200,8.178 13.200 C 7.401 13.200,7.200 13.406,7.200 14.200 C 7.200 15.000,7.000 15.200,6.200 15.200 C 5.408 15.200,5.200 15.402,5.200 16.172 C 5.200 16.876,4.951 17.180,4.300 17.272 C 3.532 17.381,3.382 17.679,3.278 19.300 C 3.168 21.015,3.061 21.200,2.178 21.200 C 1.228 21.200,1.200 21.285,1.200 24.200 C 1.200 26.600,1.080 27.200,0.600 27.200 C 0.068 27.200,0.000 46.667,0.000 200.000 C 0.000 353.333,0.068 372.800,0.600 372.800 C 1.080 372.800,1.200 373.400,1.200 375.800 C 1.200 378.715,1.228 378.800,2.178 378.800 C 3.061 378.800,3.168 378.985,3.278 380.700 C 3.382 382.321,3.532 382.619,4.300 382.728 C 4.951 382.820,5.200 383.124,5.200 383.828 C 5.200 384.598,5.408 384.800,6.200 384.800 C 7.000 384.800,7.200 385.000,7.200 385.800 C 7.200 386.594,7.401 386.800,8.178 386.800 C 9.061 386.800,9.168 386.985,9.278 388.700 L 9.400 390.600 11.300 390.722 C 13.015 390.832,13.200 390.939,13.200 391.822 C 13.200 392.599,13.406 392.800,14.200 392.800 C 15.000 392.800,15.200 393.000,15.200 393.800 C 15.200 394.592,15.402 394.800,16.172 394.800 C 16.876 394.800,17.180 395.049,17.272 395.700 C 17.381 396.468,17.679 396.618,19.300 396.722 C 21.015 396.832,21.200 396.939,21.200 397.822 C 21.200 398.772,21.285 398.800,24.200 398.800 C 26.600 398.800,27.200 398.920,27.200 399.400 C 27.200 399.932,46.667 400.000,200.000 400.000 C 353.333 400.000,372.800 399.932,372.800 399.400 C 372.800 398.920,373.400 398.800,375.800 398.800 C 378.715 398.800,378.800 398.772,378.800 397.822 C 378.800 396.939,378.985 396.832,380.700 396.722 C 382.321 396.618,382.619 396.468,382.728 395.700 C 382.820 395.049,383.124 394.800,383.828 394.800 C 384.598 394.800,384.800 394.592,384.800 393.800 C 384.800 393.000,385.000 392.800,385.800 392.800 C 386.594 392.800,386.800 392.599,386.800 391.822 C 386.800 390.939,386.985 390.832,388.700 390.722 L 390.600 390.600 390.722 388.700 C 390.832 386.985,390.939 386.800,391.822 386.800 C 392.599 386.800,392.800 386.594,392.800 385.800 C 392.800 385.000,393.000 384.800,393.800 384.800 C 394.592 384.800,394.800 384.598,394.800 383.828 C 394.800 383.124,395.049 382.820,395.700 382.728 C 396.468 382.619,396.618 382.321,396.722 380.700 C 396.832 378.985,396.939 378.800,397.822 378.800 C 398.772 378.800,398.800 378.715,398.800 375.800 C 398.800 373.400,398.920 372.800,399.400 372.800 C 399.932 372.800,400.000 353.333,400.000 200.000 C 400.000 46.667,399.932 27.200,399.400 27.200 C 398.920 27.200,398.800 26.600,398.800 24.200 C 398.800 21.285,398.772 21.200,397.822 21.200 C 396.939 21.200,396.832 21.015,396.722 19.300 C 396.618 17.679,396.468 17.381,395.700 17.272 C 395.049 17.180,394.800 16.876,394.800 16.172 C 394.800 15.402,394.592 15.200,393.800 15.200 C 393.000 15.200,392.800 15.000,392.800 14.200 C 392.800 13.406,392.599 13.200,391.822 13.200 C 390.939 13.200,390.832 13.015,390.722 11.300 L 390.600 9.400 388.700 9.278 C 386.985 9.168,386.800 9.061,386.800 8.178 C 386.800 7.401,386.594 7.200,385.800 7.200 C 385.000 7.200,384.800 7.000,384.800 6.200 C 384.800 5.408,384.598 5.200,383.828 5.200 C 383.124 5.200,382.820 4.951,382.728 4.300 C 382.619 3.532,382.321 3.382,380.700 3.278 C 378.985 3.168,378.800 3.061,378.800 2.178 C 378.800 1.228,378.715 1.200,375.800 1.200 C 373.400 1.200,372.800 1.080,372.800 0.600 C 372.800 0.068,353.333 0.000,200.000 0.000 C 46.667 0.000,27.200 0.068,27.200 0.600 M170.157 120.153 C 170.400 120.568,171.095 121.463,171.700 122.143 C 172.305 122.822,172.800 123.692,172.800 124.075 C 172.800 124.458,173.148 124.958,173.573 125.186 C 173.998 125.413,174.462 125.965,174.604 126.412 C 174.746 126.860,175.298 127.662,175.831 128.195 C 176.364 128.728,176.800 129.344,176.800 129.564 C 176.800 129.784,177.250 130.414,177.800 130.964 C 178.350 131.514,178.800 132.235,178.800 132.568 C 178.800 132.900,179.160 133.365,179.600 133.600 C 180.040 133.835,180.400 134.259,180.400 134.542 C 180.400 134.825,180.940 135.661,181.600 136.400 C 182.260 137.139,182.800 138.072,182.800 138.472 C 182.800 138.872,182.978 139.200,183.195 139.200 C 183.575 139.200,185.148 141.330,186.400 143.541 C 186.731 144.124,187.406 145.006,187.900 145.500 C 188.395 145.995,188.800 146.572,188.800 146.782 C 188.800 146.992,189.250 147.614,189.800 148.164 C 190.350 148.714,190.800 149.409,190.800 149.710 C 190.800 150.010,191.250 150.647,191.800 151.125 C 192.350 151.603,192.800 152.260,192.800 152.583 C 192.800 152.907,193.160 153.365,193.600 153.600 C 194.040 153.835,194.400 154.286,194.400 154.600 C 194.400 154.915,194.940 155.787,195.600 156.539 C 196.260 157.291,196.800 158.197,196.800 158.553 C 196.800 158.909,196.978 159.200,197.195 159.200 C 197.575 159.200,199.148 161.330,200.400 163.541 C 200.731 164.124,201.406 165.006,201.900 165.500 C 202.395 165.995,202.800 166.651,202.800 166.957 C 202.800 167.264,203.078 167.621,203.418 167.752 C 203.758 167.882,204.283 168.580,204.585 169.302 C 204.887 170.025,205.509 170.955,205.967 171.370 C 206.425 171.785,206.800 172.357,206.800 172.642 C 206.800 172.927,207.046 173.304,207.346 173.480 C 207.646 173.656,208.168 174.340,208.505 175.001 C 208.842 175.661,209.497 176.544,209.959 176.963 C 210.422 177.382,210.800 177.958,210.800 178.244 C 210.800 178.530,211.250 179.214,211.800 179.764 C 212.350 180.314,212.800 181.023,212.800 181.339 C 212.800 181.655,213.078 182.021,213.418 182.152 C 213.758 182.282,214.300 183.021,214.623 183.794 C 214.946 184.567,215.392 185.200,215.614 185.200 C 215.836 185.200,216.238 185.686,216.509 186.281 C 216.779 186.876,217.405 187.767,217.900 188.263 C 218.395 188.758,218.800 189.410,218.800 189.712 C 218.800 190.014,219.250 190.683,219.800 191.200 C 220.350 191.717,220.800 192.468,220.800 192.870 C 220.800 193.271,220.978 193.600,221.195 193.600 C 221.559 193.600,222.935 195.448,224.400 197.903 C 224.730 198.456,225.405 199.326,225.900 199.836 C 226.395 200.346,226.803 201.087,226.806 201.482 C 226.811 202.092,226.871 202.110,227.200 201.600 C 227.444 201.223,227.590 186.045,227.594 160.749 C 227.599 123.803,227.654 120.453,228.261 119.949 C 229.462 118.952,280.046 119.156,281.158 120.162 L 282.000 120.924 282.000 200.033 L 282.000 279.142 280.946 279.971 C 279.906 280.789,279.571 280.800,255.520 280.800 C 230.986 280.800,229.600 280.724,229.600 279.373 C 229.600 279.044,229.322 278.668,228.983 278.538 C 228.644 278.408,227.990 277.559,227.531 276.651 C 227.072 275.743,226.449 274.856,226.148 274.680 C 225.847 274.504,225.600 274.127,225.600 273.842 C 225.600 273.557,225.232 272.991,224.781 272.583 C 224.331 272.175,223.578 271.158,223.108 270.321 C 222.637 269.484,222.106 268.800,221.926 268.800 C 221.747 268.800,221.600 268.529,221.600 268.197 C 221.600 267.866,221.150 267.203,220.600 266.725 C 220.050 266.247,219.600 265.646,219.600 265.390 C 219.600 265.134,219.256 264.613,218.837 264.233 C 218.417 263.853,217.841 262.970,217.557 262.271 C 217.273 261.572,216.716 260.765,216.320 260.477 C 215.924 260.190,215.600 259.705,215.600 259.400 C 215.600 259.095,215.244 258.596,214.808 258.291 C 214.372 257.985,213.749 257.097,213.423 256.316 C 213.097 255.536,212.553 254.791,212.215 254.661 C 211.877 254.531,211.600 254.177,211.600 253.875 C 211.600 253.572,211.232 252.991,210.781 252.583 C 210.331 252.175,209.578 251.158,209.108 250.321 C 208.637 249.484,208.106 248.800,207.926 248.800 C 207.747 248.800,207.600 248.539,207.600 248.221 C 207.600 247.902,207.156 247.162,206.613 246.576 C 206.070 245.990,205.518 245.171,205.386 244.755 C 205.254 244.340,204.975 244.000,204.767 244.000 C 204.558 244.000,204.075 243.325,203.694 242.500 C 203.312 241.675,202.685 240.765,202.300 240.477 C 201.915 240.190,201.600 239.764,201.600 239.530 C 201.600 239.297,201.060 238.491,200.400 237.739 C 199.740 236.987,199.200 236.115,199.200 235.800 C 199.200 235.486,198.840 235.035,198.400 234.800 C 197.960 234.565,197.600 234.106,197.600 233.782 C 197.600 233.458,197.225 232.879,196.768 232.496 C 196.310 232.113,195.586 231.125,195.159 230.300 C 194.733 229.475,194.207 228.800,193.992 228.800 C 193.776 228.800,193.600 228.545,193.600 228.234 C 193.600 227.923,193.240 227.248,192.801 226.734 C 191.634 225.370,190.091 223.148,189.515 222.000 C 189.238 221.450,188.695 220.765,188.306 220.477 C 187.918 220.190,187.593 219.740,187.584 219.477 C 187.575 219.215,187.035 218.377,186.384 217.615 C 185.733 216.853,185.200 216.005,185.200 215.729 C 185.200 215.454,184.840 215.035,184.400 214.800 C 183.960 214.565,183.600 214.141,183.600 213.858 C 183.600 213.575,183.060 212.739,182.400 212.000 C 181.740 211.261,181.200 210.489,181.200 210.286 C 181.200 210.082,180.752 209.350,180.204 208.658 C 177.883 205.729,176.152 203.270,175.517 202.000 C 175.242 201.450,174.778 200.850,174.486 200.668 C 174.194 200.485,173.786 199.889,173.579 199.344 C 172.502 196.513,172.400 199.969,172.400 239.201 L 172.400 279.555 171.511 280.177 C 169.916 281.294,120.489 281.100,119.054 279.971 L 118.000 279.142 118.000 200.033 C 118.000 113.046,117.808 120.088,120.200 119.479 C 122.914 118.788,169.725 119.420,170.157 120.153 " stroke="none" fill="#04c45c" fill-rule="evenodd"></path><path id="path3" d="M120.100 120.665 C 119.124 121.059,119.396 279.063,120.374 279.586 C 121.399 280.134,168.733 280.158,170.172 279.611 L 171.196 279.221 171.298 238.111 L 171.400 197.000 172.400 196.886 C 173.201 196.794,173.612 197.113,174.466 198.486 C 175.393 199.977,177.419 202.914,180.200 206.796 C 180.640 207.411,181.900 209.238,183.000 210.857 C 184.100 212.475,185.315 214.149,185.700 214.575 C 186.085 215.002,186.400 215.484,186.400 215.647 C 186.400 215.810,186.625 216.185,186.900 216.481 C 187.175 216.777,188.014 217.915,188.764 219.010 C 191.233 222.614,193.383 225.672,194.485 227.147 C 195.081 227.946,195.871 229.140,196.241 229.800 C 196.610 230.460,197.039 231.090,197.195 231.200 C 197.351 231.310,197.911 232.052,198.440 232.848 C 200.257 235.588,203.182 239.803,204.375 241.400 C 205.032 242.280,205.856 243.505,206.206 244.121 C 206.556 244.738,207.148 245.575,207.521 245.981 C 207.895 246.387,208.608 247.322,209.107 248.060 C 213.269 254.209,216.642 259.062,218.380 261.400 C 219.034 262.280,219.870 263.531,220.237 264.180 C 220.604 264.830,221.152 265.609,221.454 265.912 C 221.757 266.215,222.198 266.822,222.433 267.261 C 222.668 267.701,223.126 268.362,223.451 268.730 C 223.775 269.099,224.834 270.570,225.804 272.000 C 226.774 273.430,228.317 275.707,229.233 277.060 C 230.486 278.910,231.197 279.579,232.099 279.760 C 234.278 280.196,278.792 280.033,279.626 279.586 C 280.721 279.000,280.861 121.063,279.767 120.643 C 278.941 120.326,230.259 120.326,229.433 120.643 C 228.861 120.862,228.800 124.863,228.800 161.829 L 228.800 202.772 227.941 203.231 C 227.267 203.592,227.016 203.574,226.773 203.145 C 226.603 202.845,226.010 201.970,225.456 201.200 C 223.415 198.366,220.589 194.315,220.200 193.667 C 219.980 193.300,219.075 192.010,218.189 190.800 C 217.303 189.590,216.268 188.150,215.889 187.600 C 215.509 187.050,214.208 185.160,212.998 183.400 C 211.787 181.640,209.808 178.850,208.601 177.200 C 207.393 175.550,206.278 173.930,206.122 173.600 C 205.967 173.270,205.103 172.010,204.202 170.800 C 203.302 169.590,202.258 168.150,201.882 167.600 C 199.393 163.958,196.479 159.746,195.800 158.809 C 195.360 158.202,194.147 156.467,193.104 154.953 C 192.062 153.439,190.321 150.940,189.237 149.400 C 188.152 147.860,186.215 145.096,184.932 143.257 C 183.649 141.418,182.240 139.417,181.800 138.809 C 181.360 138.202,180.153 136.467,179.117 134.953 C 178.082 133.439,176.341 130.940,175.248 129.400 C 174.155 127.860,172.311 125.205,171.151 123.500 L 169.042 120.400 144.821 120.432 C 131.500 120.449,120.375 120.554,120.100 120.665 M169.339 122.100 C 169.642 122.815,170.274 123.743,170.745 124.162 C 171.215 124.581,171.600 125.156,171.600 125.439 C 171.600 125.723,171.915 126.190,172.300 126.477 C 172.685 126.765,173.343 127.675,173.763 128.500 C 174.183 129.325,174.666 130.000,174.836 130.000 C 175.007 130.000,175.254 130.340,175.386 130.755 C 175.518 131.171,176.070 131.990,176.613 132.576 C 177.156 133.162,177.600 133.902,177.600 134.221 C 177.600 134.539,177.747 134.800,177.926 134.800 C 178.106 134.800,178.637 135.484,179.108 136.321 C 179.578 137.158,180.331 138.175,180.781 138.583 C 181.232 138.991,181.600 139.560,181.600 139.848 C 181.600 140.136,181.960 140.565,182.400 140.800 C 182.840 141.035,183.200 141.486,183.200 141.800 C 183.200 142.115,183.740 142.987,184.400 143.739 C 185.060 144.491,185.600 145.297,185.600 145.530 C 185.600 145.764,185.918 146.190,186.306 146.477 C 186.695 146.765,187.243 147.521,187.524 148.159 C 188.037 149.319,189.013 150.705,190.700 152.669 C 191.195 153.245,191.600 153.961,191.600 154.258 C 191.600 154.556,191.747 154.800,191.926 154.800 C 192.106 154.800,192.637 155.484,193.108 156.321 C 193.578 157.158,194.331 158.175,194.781 158.583 C 195.232 158.991,195.600 159.557,195.600 159.842 C 195.600 160.127,195.846 160.504,196.146 160.680 C 196.446 160.856,197.013 161.630,197.405 162.400 C 197.798 163.170,198.432 164.021,198.814 164.291 C 199.196 164.561,199.623 165.236,199.762 165.791 C 199.901 166.346,200.246 166.800,200.527 166.800 C 200.809 166.800,201.258 167.404,201.525 168.143 C 201.792 168.881,202.368 169.809,202.805 170.205 C 203.242 170.600,203.600 171.165,203.600 171.459 C 203.600 171.753,203.960 172.218,204.400 172.493 C 204.840 172.768,205.200 173.194,205.200 173.441 C 205.200 173.688,205.695 174.539,206.300 175.331 C 209.307 179.271,209.873 180.072,211.000 181.987 C 211.440 182.734,212.180 183.717,212.644 184.173 C 213.109 184.628,213.616 185.405,213.771 185.900 C 213.927 186.395,214.312 186.800,214.627 186.800 C 214.942 186.800,215.200 187.122,215.200 187.515 C 215.200 187.908,215.733 188.853,216.384 189.615 C 217.035 190.377,217.575 191.215,217.584 191.477 C 217.593 191.740,217.918 192.190,218.306 192.477 C 218.695 192.765,219.238 193.450,219.513 194.000 C 219.788 194.550,220.557 195.720,221.221 196.600 C 222.970 198.919,224.475 201.088,225.477 202.733 C 226.733 204.794,229.068 205.599,229.616 204.158 C 229.852 203.536,230.000 187.328,230.000 161.974 L 230.000 120.800 254.801 120.800 L 279.602 120.800 279.501 200.100 L 279.400 279.400 257.000 279.517 C 231.320 279.651,231.428 279.657,230.591 277.875 C 229.772 276.130,227.630 273.200,227.174 273.200 C 226.968 273.200,226.800 272.871,226.800 272.470 C 226.800 272.068,226.364 271.330,225.832 270.830 C 225.300 270.330,224.648 269.399,224.384 268.760 C 224.119 268.122,223.735 267.600,223.531 267.600 C 223.326 267.600,222.975 267.074,222.751 266.432 C 222.527 265.790,222.092 265.168,221.785 265.049 C 221.477 264.931,220.958 264.194,220.631 263.412 C 220.304 262.629,219.758 261.882,219.418 261.752 C 219.078 261.621,218.800 261.264,218.800 260.957 C 218.800 260.651,218.395 259.995,217.900 259.500 C 217.406 259.006,216.731 258.124,216.400 257.541 C 215.148 255.330,213.575 253.200,213.195 253.200 C 212.978 253.200,212.800 252.880,212.800 252.489 C 212.800 252.098,212.260 251.187,211.600 250.464 C 210.940 249.742,210.400 248.898,210.400 248.589 C 210.400 248.281,210.040 247.835,209.600 247.600 C 209.160 247.365,208.800 246.900,208.800 246.568 C 208.800 246.235,208.350 245.514,207.800 244.964 C 207.250 244.414,206.800 243.784,206.800 243.564 C 206.800 243.344,206.395 242.758,205.900 242.263 C 205.405 241.767,204.779 240.876,204.509 240.281 C 204.238 239.686,203.836 239.200,203.614 239.200 C 203.392 239.200,202.954 238.586,202.640 237.835 C 202.088 236.512,201.778 236.082,199.755 233.827 C 199.230 233.242,198.800 232.534,198.800 232.254 C 198.800 231.973,198.260 231.139,197.600 230.400 C 196.940 229.661,196.400 228.825,196.400 228.542 C 196.400 228.259,196.040 227.835,195.600 227.600 C 195.160 227.365,194.800 226.900,194.800 226.568 C 194.800 226.235,194.350 225.514,193.800 224.964 C 193.250 224.414,192.800 223.784,192.800 223.564 C 192.800 223.344,192.395 222.758,191.900 222.263 C 191.405 221.767,190.777 220.870,190.503 220.270 C 190.230 219.669,189.735 219.073,189.403 218.946 C 189.072 218.819,188.800 218.414,188.800 218.046 C 188.800 217.440,187.928 216.243,185.624 213.686 C 185.171 213.183,184.800 212.506,184.800 212.182 C 184.800 211.858,184.260 211.028,183.600 210.337 C 182.940 209.646,182.400 208.847,182.400 208.561 C 182.400 208.274,182.124 207.885,181.787 207.697 C 181.450 207.508,180.865 206.798,180.487 206.118 C 179.210 203.820,177.592 201.600,177.195 201.600 C 176.978 201.600,176.800 201.344,176.800 201.031 C 176.800 200.718,176.390 199.953,175.890 199.331 C 175.389 198.709,174.739 197.724,174.445 197.143 C 173.581 195.433,171.013 194.615,170.442 195.868 C 170.128 196.556,170.000 208.804,170.000 238.011 L 170.000 279.185 169.100 279.403 C 168.605 279.523,157.490 279.571,144.400 279.511 L 120.600 279.400 120.499 200.100 L 120.398 120.800 144.594 120.800 L 168.789 120.800 169.339 122.100 " stroke="none" fill="#a4ecc4" fill-rule="evenodd"></path><path id="path4" d="M119.900 120.430 C 119.237 120.818,119.200 125.032,119.200 199.997 L 119.200 279.155 120.089 279.777 C 120.874 280.327,123.823 280.389,145.189 280.306 L 169.400 280.212 145.000 280.006 C 131.580 279.893,120.375 279.654,120.100 279.476 C 119.248 278.925,119.380 120.970,120.233 120.643 C 120.581 120.509,131.705 120.400,144.954 120.400 L 169.042 120.400 171.151 123.500 C 172.311 125.205,174.155 127.860,175.248 129.400 C 176.341 130.940,178.082 133.439,179.117 134.953 C 180.153 136.467,181.360 138.202,181.800 138.809 C 182.240 139.417,183.649 141.418,184.932 143.257 C 186.215 145.096,188.152 147.860,189.237 149.400 C 190.321 150.940,192.062 153.439,193.104 154.953 C 194.147 156.467,195.360 158.202,195.800 158.809 C 196.479 159.746,199.393 163.958,201.882 167.600 C 202.258 168.150,203.302 169.590,204.202 170.800 C 205.103 172.010,205.967 173.270,206.122 173.600 C 206.278 173.930,207.393 175.550,208.601 177.200 C 209.808 178.850,211.782 181.640,212.988 183.400 C 217.346 189.765,218.744 191.715,219.403 192.352 C 220.143 193.066,217.740 189.320,216.914 188.471 C 216.632 188.181,216.400 187.810,216.400 187.647 C 216.400 187.484,216.059 186.985,215.643 186.538 C 215.226 186.091,214.589 185.202,214.227 184.562 C 213.865 183.923,213.081 182.746,212.485 181.947 C 211.888 181.148,210.601 179.348,209.624 177.947 C 208.647 176.546,207.297 174.620,206.624 173.666 C 205.951 172.713,204.950 171.252,204.400 170.420 C 203.082 168.425,201.672 166.407,199.216 163.000 C 198.107 161.460,196.489 159.120,195.622 157.800 C 193.982 155.303,193.478 154.605,191.873 152.600 C 191.345 151.940,190.610 150.860,190.241 150.200 C 189.872 149.540,189.034 148.280,188.380 147.400 C 186.960 145.489,184.223 141.579,181.801 138.000 C 180.833 136.570,179.807 135.127,179.521 134.793 C 179.234 134.460,178.654 133.654,178.232 133.004 C 177.810 132.353,177.304 131.636,177.108 131.410 C 176.911 131.185,176.447 130.529,176.075 129.954 C 175.380 128.876,174.647 127.816,171.271 123.000 L 169.309 120.200 144.954 120.110 C 128.905 120.051,120.361 120.160,119.900 120.430 M229.100 120.432 C 228.441 120.816,228.400 123.181,228.400 161.143 C 228.400 203.810,228.358 204.813,226.686 202.258 C 226.419 201.850,225.750 200.916,225.200 200.184 C 224.650 199.451,223.316 197.579,222.236 196.023 C 221.156 194.467,220.190 193.276,220.090 193.377 C 219.989 193.478,220.291 194.064,220.761 194.680 C 222.558 197.034,225.598 201.247,225.977 201.909 C 226.967 203.636,227.064 203.701,227.949 203.227 L 228.800 202.772 228.800 161.829 C 228.800 124.863,228.861 120.862,229.433 120.643 C 230.259 120.326,278.941 120.326,279.767 120.643 C 280.620 120.970,280.752 278.925,279.900 279.476 C 279.625 279.654,268.870 279.893,256.000 280.006 L 232.600 280.213 255.811 280.306 C 276.272 280.389,279.127 280.326,279.911 279.777 L 280.800 279.155 280.800 200.057 C 280.800 139.071,280.690 120.850,280.320 120.480 C 279.692 119.852,230.175 119.806,229.100 120.432 M171.467 197.067 C 171.320 197.213,171.200 215.759,171.200 238.280 L 171.200 279.226 170.300 279.588 C 169.748 279.809,169.640 279.959,170.020 279.975 C 171.618 280.040,171.600 280.501,171.600 238.964 C 171.600 200.803,171.635 198.846,172.328 197.989 L 173.056 197.090 173.918 198.445 C 174.392 199.190,175.190 200.372,175.690 201.071 C 176.191 201.770,177.551 203.718,178.712 205.401 C 179.874 207.083,181.002 208.672,181.218 208.930 C 181.434 209.189,182.025 210.030,182.530 210.800 C 183.405 212.133,185.959 215.811,187.901 218.536 C 190.975 222.847,192.395 224.914,193.940 227.330 C 194.456 228.139,195.041 228.800,195.240 228.800 C 195.438 228.800,195.600 229.000,195.600 229.244 C 195.600 229.488,196.459 230.883,197.509 232.344 C 198.560 233.805,199.724 235.450,200.097 236.000 C 200.469 236.550,201.606 238.170,202.622 239.600 C 203.638 241.030,205.082 243.100,205.832 244.200 C 207.091 246.048,209.403 249.385,211.790 252.800 C 212.329 253.570,213.851 255.730,215.174 257.600 C 216.496 259.470,218.438 262.242,219.489 263.760 C 220.540 265.278,222.168 267.618,223.106 268.960 C 224.817 271.407,225.102 271.817,228.703 277.000 C 230.144 279.075,230.901 279.817,231.624 279.866 C 232.390 279.917,232.420 279.891,231.763 279.746 C 231.302 279.644,230.171 278.446,229.247 277.080 C 228.323 275.716,226.774 273.430,225.804 272.000 C 224.834 270.570,223.775 269.099,223.451 268.730 C 223.126 268.362,222.668 267.701,222.433 267.261 C 222.198 266.822,221.757 266.215,221.454 265.912 C 221.152 265.609,220.604 264.830,220.237 264.180 C 219.870 263.531,219.034 262.280,218.380 261.400 C 216.642 259.062,213.269 254.209,209.107 248.060 C 208.608 247.322,207.895 246.387,207.521 245.981 C 207.148 245.575,206.556 244.738,206.206 244.121 C 205.856 243.505,205.032 242.280,204.375 241.400 C 203.182 239.803,200.257 235.588,198.440 232.848 C 197.911 232.052,197.351 231.310,197.195 231.200 C 197.039 231.090,196.610 230.460,196.241 229.800 C 195.871 229.140,195.081 227.946,194.485 227.147 C 193.383 225.672,191.233 222.614,188.764 219.010 C 188.014 217.915,187.175 216.777,186.900 216.481 C 186.625 216.185,186.400 215.810,186.400 215.647 C 186.400 215.484,186.085 215.002,185.700 214.575 C 185.315 214.149,184.100 212.475,183.000 210.857 C 181.900 209.238,180.640 207.411,180.200 206.796 C 177.461 202.972,175.394 199.980,174.469 198.500 C 173.470 196.902,172.225 196.308,171.467 197.067 " stroke="none" fill="#7ce4ac" fill-rule="evenodd"></path></g></svg>